<?xml version="1.0" encoding="UTF-8" standalone="no"?>
<!-- Created with Inkscape (http://www.inkscape.org/) -->

<svg
   width="65.924698mm"
   height="48.358936mm"
   viewBox="0 0 65.924698 48.358936"
   version="1.1"
   id="svg1"
   xmlns="http://www.w3.org/2000/svg"
   xmlns:svg="http://www.w3.org/2000/svg">
  <defs
     id="defs1" />
  <g
     id="layer1"
     transform="translate(-6.7417679,-83.512289)">
    <path
       style="fill:#d3e0f2;fill-opacity:1;stroke:none;stroke-width:3.86501;stroke-linecap:round;stroke-dasharray:none;stroke-opacity:1"
       d="M 86.283321,102.70135 C 76.94033,96.058246 78.062518,89.610253 79.197859,87.057259 c 1.13534,-2.552994 4.053426,-4.402079 8.935271,-4.433682 8.530095,1.71e-4 16.5111,5.479265 25.09604,9.422417 5.68385,2.469066 9.79339,3.470469 14.6181,3.027689 4.82472,-0.44278 8.87429,-0.554163 18.15273,-5.073686 -3.53505,3.484809 -9.70093,6.638587 -15.69029,7.798981 -19.38145,4.585822 -34.099791,-11.395165 -43.57028,-9.204884 -3.885084,1.082865 -4.324392,4.928737 -3.757074,7.498975 0.455502,2.063661 2.399965,4.916401 3.300965,6.608281 z"
       id="path1"
       transform="matrix(0.97599354,0,0,0.97599354,-69.828589,29.489694)" />
    <path
       style="fill:#d3e0f2;fill-opacity:1;stroke:none;stroke-width:3.77223;stroke-linecap:round;stroke-dasharray:none;stroke-opacity:1"
       d="m 19.869803,131.87122 c -4.967953,-2.74283 -5.481759,-5.05951 -5.449793,-7.54096 0.03196,-2.48146 1.769286,-4.92919 6.127832,-5.12666 4.358547,-0.19746 10.793994,3.86652 18.164208,6.33802 7.370217,2.4715 15.90342,2.96744 23.606529,-0.48126 -5.068316,5.42258 -17.613039,6.14993 -24.557417,3.37378 -6.944381,-2.77615 -14.934404,-6.64205 -18.112368,-5.00215 -3.177964,1.6399 -3.140544,4.2266 0.221009,8.43923 z"
       id="path1-8" />
    <path
       id="path15"
       style="fill:#d3e0f2;fill-opacity:1;stroke-width:3.77223;stroke-linecap:round"
       d="m 60.817697,93.998004 c -7.096362,0.265107 -51.3400207,8.198706 -51.3514642,9.037406 -0.021213,1.55473 0.064925,6.19144 0.1361177,7.28179 2.7678015,-1.67854 5.9731195,-1.47172 5.9731195,-1.47172 8.325318,1.7e-4 16.114829,5.14523 24.493678,8.99373 5.547397,2.40979 7.274498,3.34473 10.678291,3.40198 0,0 7.074758,-8.24177 8.050751,-11.16975 0.21894,-0.65682 -6.227846,-1.68793 -8.206423,-1.73147 -1.963134,-0.0432 -5.326464,-0.22107 -9.634265,1.13834 0.296917,-0.23932 0.588844,-0.46583 0.883136,-0.67937 0.294284,-0.21354 0.591013,-0.41395 0.898258,-0.60119 0.307232,-0.18725 0.769864,-0.37519 1.209957,0.36162 0.19082,0.31947 0.440222,-1.19037 0.820088,-1.32344 0.379875,-0.13307 1.064554,0.0249 1.378913,0.7752 0.174657,0.41687 0.759195,-1.32935 1.274015,-1.40615 0.514815,-0.0768 1.475056,0.22928 1.830317,1.0995 0.229631,0.56249 1.107151,-1.36755 1.819225,-1.38598 0.686848,-0.0178 1.472401,0.37794 1.81064,1.37085 0.196826,0.57778 1.314256,-1.25618 1.844447,-1.18776 0.530187,0.0684 0.928072,0.67096 1.084875,1.69817 0.06904,0.45229 1.24117,-1.2768 1.606885,-1.18423 0.365728,0.0926 0.43783,0.8084 0.543555,1.50169 0.04404,0.28879 0.944034,-1.08379 1.137479,-1.02911 0.394353,0.11146 0.598301,0.14792 0.62439,0.0595 1.702813,-2.91729 5.783739,-12.326156 4.156752,-13.424517 -0.45386,-0.306397 -3.062733,-0.125101 -3.062733,-0.125101 z m -16.343732,5.152068 c 0.160291,0.388312 0.17497,0.637267 -0.02106,1.138578 -0.196021,0.50132 -1.125174,0.82363 -2.232638,0.76645 -1.177925,-0.0608 -1.716759,-0.28428 -2.052911,-0.8666 -0.161293,-0.632249 0.03894,-1.016622 0.590624,-1.18747 0.551689,-0.170848 0.739308,-0.202343 1.054838,-0.189663 0.578283,0.02325 0.319546,1.179826 0.448391,1.905233 0.563676,-0.739094 0.04727,-1.924951 0.583586,-2.010292 0.582862,-0.09275 1.342522,-0.250645 1.62917,0.443764 z m -7.368947,3.539208 c -1.951985,2.92798 -1.951985,6.83187 0,9.75984 -1.951985,-0.97599 -2.502114,-2.92819 -2.502114,-4.88017 0,-1.95199 0.550129,-3.90368 2.502114,-4.87967 z m -2.502114,0.48771 c -1.522775,2.63519 -1.522775,6.14873 0,8.78391 -1.522775,-0.87839 -1.952378,-2.63517 -1.952378,-4.39195 0,-1.75679 0.429603,-3.51356 1.952378,-4.39196 z m -2.046191,0.22697 c -1.449242,2.499 -1.449242,5.83098 0,8.32999 -1.449242,-0.83301 -1.858056,-2.499 -1.858056,-4.165 0,-1.666 0.408814,-3.33199 1.858056,-4.16499 z" />
    <path
       id="path19-1"
       style="fill:#d3e0f2;fill-opacity:1;stroke:none;stroke-width:0.390397;stroke-linecap:round;stroke-dasharray:none;stroke-opacity:1"
       d="m 28.026415,83.512285 -10.001868,3.904352 v 3.990996 l 0.936924,-0.374769 v -2.835495 c 0,0 -0.02042,-0.15424 0.144409,-0.15111 0.16483,0.0033 0.144639,0.15111 0.144639,0.15111 v 2.719968 l 1.646723,-0.658735 v -2.864377 c 0,0 -0.02019,-0.154009 0.144639,-0.150879 0.164831,0.0033 0.144409,0.150879 0.144409,0.150879 v 2.890024 l 1.849126,0.298752 v -3.973205 c 0,0 -0.02042,-0.154008 0.144408,-0.150878 0.164831,0.0033 0.144641,0.150878 0.144641,0.150878 v 4.019879 l 2.039513,0.329713 v -5.527044 c 0,0 -0.02019,-0.154239 0.14464,-0.151109 0.164831,0.0033 0.144409,0.151109 0.144409,0.151109 v 5.573718 l 1.361602,0.219963 0.79136,-0.291821 v -6.444791 c 0,0 -0.02019,-0.154008 0.14464,-0.150878 0.16483,0.0033 0.144409,0.150878 0.144409,0.150878 v 6.338275 l 5.745621,-2.117842 0.04182,-4.221127 z" />
    <path
       id="path19-2-7"
       style="fill:#d3e0f2;fill-opacity:1;stroke:none;stroke-width:0.683195;stroke-linecap:round;stroke-dasharray:none;stroke-opacity:1"
       d="m 37.081191,88.121351 -9.759953,3.597512 0.03558,6.819562 c 2.550329,-0.495898 15.580436,-2.609294 15.580436,-2.609294 v -6.831807 z m 0.01225,0.447321 c 0.164829,0.0033 0.14441,0.150879 0.14441,0.150879 v 7.19271 c 0,0 -0.0019,0.156196 -0.14441,0.156196 -0.142514,0 -0.144638,-0.156196 -0.144638,-0.156196 v -7.19271 c 0,0 -0.0202,-0.154009 0.144638,-0.150879 z m -2.442011,0.942701 c 0.164831,0.0033 0.144409,0.150878 0.144409,0.150878 V 96.3783 c 0,0 -0.0019,0.155959 -0.144409,0.155959 -0.142514,0 -0.144639,-0.155959 -0.144639,-0.155959 v -6.716049 c 0,0 -0.02019,-0.154008 0.144639,-0.150878 z m -2.328793,1.177682 c 0.16483,0.0033 0.144639,0.150879 0.144639,0.150879 v 5.991926 c 0,0 -0.0021,0.155959 -0.144639,0.155959 -0.142515,0 -0.144409,-0.155959 -0.144409,-0.155959 v -5.991926 c 0,0 -0.02042,-0.154009 0.144409,-0.150879 z m -2.138174,0.784429 c 0.16483,0.0033 0.144639,0.150878 0.144639,0.150878 v 5.691556 c 0,0 -0.0021,0.156191 -0.144639,0.156191 -0.142515,0 -0.144409,-0.156191 -0.144409,-0.156191 v -5.691556 c 0,0 -0.02042,-0.154008 0.144409,-0.150878 z m -1.935772,0.802913 c 0.164831,0.0033 0.144641,0.151109 0.144641,0.151109 v 5.338274 c 0,0 -0.0021,0.156191 -0.144641,0.156191 -0.142514,0 -0.144408,-0.156191 -0.144408,-0.156191 v -5.338274 c 0,0 -0.02042,-0.154239 0.144408,-0.151109 z" />
    <path
       id="path19-6"
       style="fill:#d3e0f2;fill-opacity:1;stroke:none;stroke-width:0.683195;stroke-linecap:round;stroke-dasharray:none;stroke-opacity:1"
       d="m 20.952463,90.777087 -9.759954,3.903889 v 6.832034 c 2.55034,-0.49589 15.615788,-2.927915 15.615788,-2.927915 l -0.01756,-6.825797 z m -0.01063,0.58318 c 0.16483,0.0033 0.14464,0.150879 0.14464,0.150879 v 7.192712 c 0,0 -0.0021,0.156191 -0.14464,0.156191 -0.142515,0 -0.144409,-0.156191 -0.144409,-0.156191 v -7.192712 c 0,0 -0.02042,-0.154009 0.144409,-0.150879 z m -2.44201,0.942701 c 0.16483,0.0033 0.144639,0.151109 0.144639,0.151109 v 6.715815 c 0,0 -0.0021,0.155964 -0.144639,0.155964 -0.142515,0 -0.144409,-0.155964 -0.144409,-0.155964 v -6.715815 c 0,0 -0.02042,-0.154239 0.144409,-0.151109 z m -2.328563,1.177683 c 0.16483,0.0033 0.144409,0.150878 0.144409,0.150878 v 5.991923 c 0,0 -0.0019,0.155964 -0.144409,0.155964 -0.142515,0 -0.14464,-0.155964 -0.14464,-0.155964 v -5.991923 c 0,0 -0.02019,-0.154008 0.14464,-0.150878 z m -2.138174,0.784428 c 0.16483,0.0033 0.14464,0.150878 0.14464,0.150878 v 5.691553 c 0,0 -0.0021,0.1562 -0.14464,0.1562 -0.142515,0 -0.144409,-0.1562 -0.144409,-0.1562 v -5.691553 c 0,0 -0.02042,-0.154008 0.144409,-0.150878 z m -1.935771,0.802914 c 0.16483,0.0033 0.144639,0.151108 0.144639,0.151108 v 5.338269 c 0,0 -0.0021,0.1562 -0.144639,0.1562 -0.142515,0 -0.144409,-0.1562 -0.144409,-0.1562 v -5.338269 c 0,0 -0.02042,-0.154238 0.144409,-0.151108 z" />
  </g>
</svg>
